<svg xmlns="http://www.w3.org/2000/svg" width="24" height="24" viewBox="0 0 24 24">
    <g fill="#00BDFF" fill-rule="nonzero">
        <path d="M1 24h22a1 1 0 0 0 1-1V1a1 1 0 0 0-1-1H1a1 1 0 0 0-1 1v22a1 1 0 0 0 1 1zM2 2h20v20H2V2z"/>
        <path d="M6.002 1.07c.004.047.01.146.015.292.063 1.65-.038 3.596-.432 5.428C4.865 10.134 3.4 12 1 12a1 1 0 0 0 0 2c3.578 0 5.645-2.634 6.54-6.79.435-2.022.545-4.121.475-5.925A12.448 12.448 0 0 0 7.998.93a1 1 0 0 0-1.996.138z"/>
        <path d="M7.996 23.091c.006-.068.015-.185.023-.346.078-1.532-.024-3.292-.456-4.991C6.668 14.23 4.558 12 1 12a1 1 0 0 0 0 2c2.495 0 3.932 1.519 4.625 4.246.374 1.473.466 3.047.396 4.396a7.53 7.53 0 0 1-.017.267 1 1 0 1 0 1.992.182zM16.002.93l-.017.355c-.07 1.804.04 3.903.475 5.925C17.355 11.366 19.422 14 23 14a1 1 0 0 0 0-2c-2.4 0-3.865-1.866-4.585-5.21-.394-1.832-.495-3.777-.432-5.428.006-.146.011-.245.015-.293a1 1 0 1 0-1.996-.138z"/>
        <path d="M17.996 22.909a7.53 7.53 0 0 1-.017-.267c-.07-1.349.022-2.923.396-4.396C19.068 15.52 20.505 14 23 14a1 1 0 0 0 0-2c-3.558 0-5.668 2.231-6.563 5.754-.432 1.699-.534 3.459-.456 4.99.008.162.017.28.023.347a1 1 0 0 0 1.992-.182zM12 6.478l1.06 2.146 2.369.345-1.714 1.671.404 2.36L12 11.886 9.881 13l.404-2.36-1.714-1.672 2.369-.345zM10 24h4a1 1 0 0 0 1-1v-3a1 1 0 0 0-1-1h-4a1 1 0 0 0-1 1v3a1 1 0 0 0 1 1zm1-3h2v1h-2v-1z"/>
    </g>
</svg>
